{"asset":{"version":"2.0","generator":"THREE.GLTFExporter"},"scenes":[{"nodes":[0],"name":"AuxScene"}],"scene":0,"nodes":[{"mesh":0}],"bufferViews":[{"buffer":0,"byteOffset":0,"byteLength":1692,"target":34962,"byteStride":12},{"buffer":0,"byteOffset":1692,"byteLength":1692,"target":34962,"byteStride":12}],"buffers":[{"byteLength":3384,"uri":"data:application/octet-stream;base64,"}],"accessors":[{"bufferView":0,"componentType":5126,"count":141,"max":[9.5,2.6870269775390625,9.5],"min":[-9.399999618530273,0.2870270013809204,-9.399999618530273],"type":"VEC3"},{"bufferView":1,"componentType":5126,"count":141,"max":[0.22819912433624268,1,0.9351553916931152],"min":[-0.29231327772140503,0.3237065076828003,-0.694244384765625],"type":"VEC3"}],"materials":[{"pbrMetallicRoughness":{"baseColorFactor":[0.5019607843137255,0.5019607843137255,0.5019607843137255,1],"metallicFactor":0,"roughnessFactor":1}}],"meshes":[{"primitives":[{"mode":4,"attributes":{"POSITION":0,"NORMAL":1},"material":0}]}]}